<?xml version="1.0" encoding="utf-8"?>
<!-- Generator: Adobe Illustrator 16.0.0, SVG Export Plug-In . SVG Version: 6.00 Build 0)  -->
<!DOCTYPE svg PUBLIC "-//W3C//DTD SVG 1.1//EN" "http://www.w3.org/Graphics/SVG/1.1/DTD/svg11.dtd">
<svg version="1.1" id="Layer_1" xmlns="http://www.w3.org/2000/svg" xmlns:xlink="http://www.w3.org/1999/xlink" x="0px" y="0px"
	 width="43.2px" height="43.2px" viewBox="0 0 43.2 43.2" enable-background="new 0 0 43.2 43.2" xml:space="preserve">
<g>
	<g>
		<g>
			<path fill="#FF000A" d="M28.074,43.191H15.148c-0.146,0-0.287-0.045-0.406-0.131l-10.46-7.76
				c-0.115-0.088-0.202-0.207-0.245-0.342L0.042,22.28C0,22.153,0,22.014,0.039,21.882L4.033,8.239
				c0.043-0.146,0.135-0.274,0.258-0.362l10.686-7.755c0.118-0.084,0.26-0.131,0.402-0.131h12.463c0.143,0,0.285,0.046,0.402,0.13
				L38.934,7.88c0.119,0.083,0.211,0.211,0.254,0.359l3.994,13.643c0.039,0.13,0.037,0.267-0.002,0.397l-3.996,12.68
				c-0.041,0.133-0.127,0.254-0.242,0.34l-10.461,7.76C28.359,43.146,28.219,43.191,28.074,43.191z M15.683,41.824H26.4
				c-4.161-4.059-8.453-7.717-12.772-10.887C14.076,34.459,14.766,38.117,15.683,41.824z M14.12,29.598
				c4.627,3.369,9.056,7.143,13.517,11.52c1.059-5.709,1.689-11.27,1.881-16.535C23.85,25.814,18.542,27.543,14.12,29.598z
				 M30.863,25.178c-0.209,5.02-0.814,10.311-1.801,15.748l8.598-6.379C35.711,30.717,33.482,27.645,30.863,25.178z M5.788,34.715
				l8.249,6.117c-0.82-3.502-1.438-6.959-1.838-10.289C9.712,31.832,7.558,33.232,5.788,34.715z M1.85,23.471l3.182,10.092
				c1.793-1.48,3.953-2.883,6.431-4.174C8.341,27.221,5.112,25.232,1.85,23.471z M31.719,24.135c2.566,2.396,4.75,5.295,6.66,8.83
				l3.195-10.141C38.439,23.047,35.049,23.496,31.719,24.135z M13.227,15.328c-0.348,4.24-0.306,8.653,0.124,13.127
				c4.414-2.074,9.713-3.828,15.375-5.094c-3.301-2.537-6.784-4.075-10.464-5.701C16.616,16.934,14.917,16.185,13.227,15.328z
				 M1.865,21.922c3.439,1.828,6.825,3.889,10.072,6.135c-0.386-4.318-0.415-8.582-0.087-12.687
				C7.962,17.2,4.605,19.401,1.865,21.922z M30.387,10.959c0.443,3.874,0.629,7.885,0.555,11.935
				c3.459-0.684,6.977-1.17,10.229-1.413C37.965,17.563,34.43,14.114,30.387,10.959z M14.257,14.311
				c1.442,0.719,2.873,1.357,4.559,2.1c3.568,1.573,7.252,3.199,10.76,5.904c0.051-4.117-0.172-8.181-0.662-12.09
				C23.545,11.147,18.618,12.521,14.257,14.311z M5.028,9.711L2.033,19.944c2.578-2.173,5.636-4.104,9.104-5.75
				C8.825,12.863,6.82,11.392,5.028,9.711z M31.207,9.863c3.6,2.804,6.795,5.83,9.729,9.215l-2.906-9.929
				C35.773,9.294,33.482,9.535,31.207,9.863z M15.791,1.676c-1.116,3.741-1.907,7.605-2.354,11.497
				c4.289-1.79,9.117-3.181,14.366-4.139C24.443,6.634,20.604,4.284,15.791,1.676z M5.749,8.508
				c1.826,1.747,3.897,3.269,6.314,4.638c0.408-3.629,1.109-7.235,2.089-10.735L5.749,8.508z M28.92,2.301
				c0.469,2.093,0.857,4.224,1.16,6.347c2.156-0.334,4.348-0.592,6.527-0.769L28.92,2.301z M18.06,1.359
				c4.127,2.292,7.506,4.395,10.532,6.554c-0.34-2.199-0.773-4.4-1.291-6.554H18.06z"/>
		</g>
	</g>
</g>
</svg>
